<svg xmlns="http://www.w3.org/2000/svg" xmlns:xlink="http://www.w3.org/1999/xlink" width="1080" zoomAndPan="magnify" viewBox="0 0 810 809.999993" height="1080" preserveAspectRatio="xMidYMid meet" version="1.2"><defs><clipPath id="cf01f4a8c5"><path d="M 131 3.75 L 682 3.75 L 682 810 L 131 810 Z M 131 3.75 "/></clipPath></defs><g id="c94f267466"><g clip-rule="nonzero" clip-path="url(#cf01f4a8c5)"><path style=" stroke:none;fill-rule:nonzero;fill:#999999;fill-opacity:1;" d="M 633.507812 2.527344 L 364.867188 2.527344 L 364.867188 152.195312 C 364.855469 153.5625 364.808594 154.929688 364.730469 156.292969 C 364.648438 157.660156 364.535156 159.023438 364.390625 160.382812 C 364.246094 161.742188 364.066406 163.097656 363.855469 164.445312 C 363.644531 165.796875 363.398438 167.144531 363.121094 168.480469 C 362.84375 169.820312 362.535156 171.152344 362.191406 172.476562 C 361.847656 173.800781 361.476562 175.113281 361.070312 176.421875 C 360.660156 177.726562 360.222656 179.019531 359.753906 180.304688 C 359.285156 181.589844 358.785156 182.859375 358.253906 184.121094 C 357.722656 185.378906 357.160156 186.625 356.566406 187.859375 C 355.972656 189.089844 355.351562 190.308594 354.699219 191.511719 C 354.046875 192.710938 353.367188 193.898438 352.65625 195.066406 C 351.949219 196.234375 351.210938 197.386719 350.445312 198.519531 C 349.679688 199.652344 348.886719 200.765625 348.066406 201.859375 C 347.246094 202.953125 346.398438 204.027344 345.527344 205.082031 C 344.652344 206.132812 343.757812 207.164062 342.832031 208.171875 C 341.910156 209.183594 340.964844 210.167969 339.992188 211.132812 C 339.023438 212.09375 338.027344 213.03125 337.011719 213.945312 C 335.996094 214.859375 334.957031 215.75 333.898438 216.613281 C 332.835938 217.476562 331.757812 218.316406 330.65625 219.125 C 329.554688 219.9375 328.433594 220.722656 327.296875 221.476562 C 326.15625 222.234375 325 222.960938 323.824219 223.660156 C 322.648438 224.363281 321.460938 225.03125 320.25 225.675781 C 319.042969 226.316406 317.820312 226.929688 316.585938 227.511719 C 315.347656 228.09375 314.097656 228.644531 312.832031 229.167969 C 311.570312 229.6875 310.292969 230.175781 309.003906 230.636719 C 307.714844 231.09375 306.417969 231.523438 305.109375 231.917969 C 303.800781 232.3125 302.484375 232.675781 301.15625 233.007812 C 299.828125 233.339844 298.496094 233.640625 297.152344 233.90625 C 295.8125 234.171875 294.464844 234.40625 293.113281 234.605469 C 291.761719 234.804688 290.402344 234.972656 289.042969 235.109375 C 287.683594 235.242188 286.320312 235.34375 284.953125 235.410156 C 283.589844 235.480469 282.222656 235.515625 280.855469 235.515625 L 131.390625 235.515625 L 131.390625 763.847656 C 131.378906 765.378906 131.445312 766.910156 131.585938 768.433594 C 131.726562 769.960938 131.941406 771.476562 132.234375 772.980469 C 132.523438 774.484375 132.890625 775.972656 133.328125 777.441406 C 133.765625 778.910156 134.273438 780.351562 134.855469 781.769531 C 135.4375 783.1875 136.085938 784.574219 136.804688 785.929688 C 137.523438 787.28125 138.308594 788.597656 139.15625 789.871094 C 140.003906 791.148438 140.914062 792.378906 141.886719 793.566406 C 142.855469 794.75 143.882812 795.886719 144.964844 796.972656 C 146.050781 798.054688 147.183594 799.082031 148.367188 800.054688 C 149.554688 801.027344 150.785156 801.9375 152.058594 802.785156 C 153.335938 803.636719 154.648438 804.421875 156 805.140625 C 157.355469 805.859375 158.738281 806.511719 160.15625 807.09375 C 161.574219 807.675781 163.019531 808.1875 164.484375 808.628906 C 165.953125 809.066406 167.441406 809.433594 168.945312 809.726562 C 170.449219 810.015625 171.964844 810.234375 173.492188 810.375 C 175.015625 810.519531 176.546875 810.585938 178.078125 810.574219 L 633.507812 810.574219 C 635.054688 810.589844 636.59375 810.527344 638.132812 810.386719 C 639.667969 810.25 641.195312 810.039062 642.714844 809.75 C 644.230469 809.460938 645.730469 809.097656 647.210938 808.664062 C 648.691406 808.230469 650.148438 807.722656 651.578125 807.144531 C 653.011719 806.566406 654.410156 805.917969 655.777344 805.203125 C 657.144531 804.484375 658.472656 803.703125 659.765625 802.859375 C 661.054688 802.011719 662.300781 801.105469 663.503906 800.136719 C 664.707031 799.164062 665.859375 798.140625 666.957031 797.058594 C 668.058594 795.976562 669.105469 794.84375 670.09375 793.65625 C 671.085938 792.472656 672.011719 791.242188 672.882812 789.964844 C 673.75 788.691406 674.554688 787.375 675.292969 786.019531 C 676.035156 784.664062 676.703125 783.277344 677.308594 781.855469 C 677.910156 780.433594 678.441406 778.984375 678.902344 777.511719 C 679.363281 776.039062 679.753906 774.546875 680.066406 773.035156 C 680.378906 771.523438 680.621094 770 680.785156 768.464844 C 680.949219 766.929688 681.039062 765.390625 681.050781 763.847656 L 681.050781 49.214844 C 681.035156 47.671875 680.945312 46.132812 680.78125 44.601562 C 680.613281 43.066406 680.375 41.542969 680.058594 40.035156 C 679.746094 38.523438 679.355469 37.03125 678.894531 35.558594 C 678.433594 34.085938 677.898438 32.640625 677.296875 31.222656 C 676.691406 29.800781 676.019531 28.414062 675.28125 27.058594 C 674.542969 25.707031 673.738281 24.390625 672.867188 23.117188 C 672 21.84375 671.070312 20.613281 670.078125 19.429688 C 669.089844 18.246094 668.046875 17.113281 666.945312 16.03125 C 665.84375 14.949219 664.691406 13.925781 663.492188 12.957031 C 662.289062 11.988281 661.042969 11.082031 659.753906 10.238281 C 658.460938 9.390625 657.132812 8.609375 655.765625 7.894531 C 654.398438 7.179688 653 6.535156 651.570312 5.957031 C 650.136719 5.378906 648.683594 4.871094 647.203125 4.4375 C 645.722656 4.003906 644.222656 3.640625 642.707031 3.355469 C 641.191406 3.066406 639.664062 2.851562 638.128906 2.714844 C 636.59375 2.578125 635.050781 2.515625 633.507812 2.527344 Z M 590.8125 684.148438 L 221.628906 684.148438 L 221.628906 647.515625 L 590.8125 647.515625 Z M 590.8125 574.25 L 221.628906 574.25 L 221.628906 537.210938 L 590.8125 537.210938 Z M 590.8125 463.984375 L 221.628906 463.984375 L 221.628906 427.066406 L 590.8125 427.066406 Z M 590.8125 353.71875 L 221.628906 353.71875 L 221.628906 317.535156 L 590.8125 317.535156 Z M 590.8125 353.71875 "/></g><path style=" stroke:none;fill-rule:nonzero;fill:#999999;fill-opacity:1;" d="M 327.746094 152.195312 L 327.746094 28.171875 L 242.265625 113.363281 L 157.402344 199.125 L 280.855469 199.125 C 282.390625 199.132812 283.925781 199.058594 285.457031 198.910156 C 286.988281 198.765625 288.507812 198.542969 290.015625 198.246094 C 291.523438 197.949219 293.015625 197.578125 294.488281 197.132812 C 295.960938 196.6875 297.40625 196.171875 298.828125 195.585938 C 300.25 195 301.636719 194.34375 302.992188 193.621094 C 304.351562 192.894531 305.667969 192.109375 306.945312 191.253906 C 308.226562 190.398438 309.460938 189.484375 310.648438 188.507812 C 311.835938 187.535156 312.972656 186.503906 314.0625 185.414062 C 315.148438 184.328125 316.179688 183.1875 317.152344 182 C 318.128906 180.808594 319.042969 179.574219 319.894531 178.296875 C 320.746094 177.015625 321.535156 175.699219 322.257812 174.339844 C 322.980469 172.984375 323.632812 171.59375 324.21875 170.171875 C 324.804688 168.75 325.320312 167.300781 325.761719 165.832031 C 326.207031 164.359375 326.574219 162.867188 326.871094 161.359375 C 327.167969 159.847656 327.386719 158.328125 327.535156 156.796875 C 327.679688 155.269531 327.75 153.734375 327.746094 152.195312 Z M 327.746094 152.195312 "/></g></svg>