<svg xmlns="http://www.w3.org/2000/svg" xmlns:xlink="http://www.w3.org/1999/xlink" width="1080" zoomAndPan="magnify" viewBox="0 0 810 809.999993" height="1080" preserveAspectRatio="xMidYMid meet" version="1.2"><g id="210a2d3bf1"><path style=" stroke:none;fill-rule:nonzero;fill:#999999;fill-opacity:1;" d="M 237.265625 2.835938 C 194.171875 4.867188 164.746094 11.746094 139.019531 21.855469 C 112.394531 32.230469 89.828125 46.152344 67.375 68.6875 C 44.921875 91.222656 31.097656 113.804688 20.792969 140.46875 C 10.820312 166.253906 4.066406 195.703125 2.164062 238.820312 C 0.257812 281.9375 -0.160156 295.796875 0.046875 405.777344 C 0.257812 515.757812 0.746094 529.546875 2.835938 572.75 C 4.890625 615.835938 11.746094 645.253906 21.855469 670.988281 C 32.246094 697.613281 46.152344 720.171875 68.695312 742.632812 C 91.238281 765.09375 113.804688 778.886719 140.535156 789.207031 C 166.292969 799.164062 195.753906 805.949219 238.859375 807.835938 C 281.96875 809.726562 295.84375 810.160156 405.792969 809.953125 C 515.742188 809.742188 529.585938 809.253906 572.785156 807.207031 C 615.980469 805.15625 645.246094 798.253906 670.988281 788.195312 C 697.613281 777.777344 720.1875 763.894531 742.632812 741.34375 C 765.078125 718.792969 778.894531 696.195312 789.191406 669.511719 C 799.171875 643.753906 805.949219 614.296875 807.820312 571.21875 C 809.707031 527.992188 810.152344 514.1875 809.941406 404.222656 C 809.734375 294.257812 809.238281 280.46875 807.1875 237.28125 C 805.140625 194.09375 798.277344 164.761719 788.179688 139.011719 C 777.769531 112.386719 763.878906 89.84375 741.34375 67.367188 C 718.808594 44.890625 696.195312 31.078125 669.523438 20.808594 C 643.746094 10.835938 614.304688 4.042969 571.195312 2.179688 C 528.085938 0.316406 514.210938 -0.160156 404.222656 0.046875 C 294.234375 0.257812 280.460938 0.730469 237.265625 2.835938 M 241.996094 734.976562 C 202.507812 733.261719 181.066406 726.699219 166.777344 721.207031 C 147.855469 713.917969 134.378906 705.105469 120.140625 691.003906 C 105.898438 676.902344 97.152344 663.375 89.765625 644.492188 C 84.214844 630.203125 77.535156 608.789062 75.6875 569.300781 C 73.675781 526.621094 73.257812 513.808594 73.023438 405.679688 C 72.785156 297.554688 73.199219 284.753906 75.070312 242.058594 C 76.753906 202.605469 83.355469 181.140625 88.839844 166.859375 C 96.128906 147.914062 104.910156 134.460938 119.046875 120.226562 C 133.179688 105.996094 146.667969 97.234375 165.5625 89.84375 C 179.835938 84.273438 201.253906 77.648438 240.722656 75.765625 C 283.433594 73.742188 296.234375 73.335938 404.34375 73.101562 C 512.453125 72.867188 525.285156 73.273438 568.011719 75.152344 C 607.46875 76.867188 628.941406 83.40625 643.203125 88.921875 C 662.132812 96.210938 675.605469 104.96875 689.835938 119.125 C 704.066406 133.285156 712.839844 146.722656 720.226562 165.660156 C 725.808594 179.894531 732.433594 201.300781 734.296875 240.796875 C 736.332031 283.507812 736.792969 296.3125 736.988281 404.417969 C 737.179688 512.519531 736.800781 525.359375 734.929688 568.035156 C 733.203125 607.523438 726.660156 628.972656 721.160156 643.277344 C 713.871094 662.191406 705.082031 675.679688 690.9375 689.902344 C 676.796875 704.125 663.324219 712.890625 644.417969 720.277344 C 630.164062 725.839844 608.722656 732.484375 569.285156 734.363281 C 526.574219 736.371094 513.773438 736.792969 405.625 737.027344 C 297.472656 737.261719 284.714844 736.824219 242.003906 734.976562 M 572.160156 188.542969 C 572.164062 190.136719 572.242188 191.722656 572.402344 193.308594 C 572.558594 194.890625 572.796875 196.464844 573.109375 198.023438 C 573.421875 199.585938 573.8125 201.125 574.277344 202.648438 C 574.742188 204.171875 575.277344 205.667969 575.890625 207.136719 C 576.503906 208.605469 577.183594 210.042969 577.9375 211.445312 C 578.691406 212.847656 579.511719 214.210938 580.398438 215.53125 C 581.28125 216.855469 582.234375 218.128906 583.246094 219.359375 C 584.257812 220.585938 585.324219 221.761719 586.453125 222.886719 C 587.582031 224.011719 588.761719 225.078125 589.992188 226.085938 C 591.226562 227.09375 592.503906 228.035156 593.828125 228.917969 C 595.15625 229.800781 596.519531 230.617188 597.925781 231.363281 C 599.328125 232.113281 600.769531 232.789062 602.238281 233.394531 C 603.710938 234.003906 605.210938 234.535156 606.734375 234.996094 C 608.257812 235.453125 609.800781 235.835938 611.363281 236.144531 C 612.925781 236.453125 614.496094 236.683594 616.082031 236.835938 C 617.667969 236.988281 619.253906 237.066406 620.847656 237.0625 C 622.4375 237.058594 624.027344 236.980469 625.609375 236.820312 C 627.195312 236.660156 628.765625 236.425781 630.328125 236.113281 C 631.886719 235.796875 633.429688 235.410156 634.953125 234.945312 C 636.472656 234.480469 637.96875 233.941406 639.4375 233.328125 C 640.910156 232.71875 642.34375 232.035156 643.746094 231.28125 C 645.148438 230.53125 646.511719 229.710938 647.832031 228.824219 C 649.15625 227.9375 650.429688 226.988281 651.660156 225.972656 C 652.886719 224.960938 654.066406 223.894531 655.1875 222.765625 C 656.3125 221.636719 657.378906 220.457031 658.382812 219.226562 C 659.390625 217.992188 660.335938 216.714844 661.21875 215.386719 C 662.101562 214.0625 662.914062 212.699219 663.664062 211.292969 C 664.410156 209.886719 665.089844 208.449219 665.695312 206.976562 C 666.300781 205.503906 666.835938 204.007812 667.292969 202.484375 C 667.753906 200.960938 668.136719 199.417969 668.445312 197.855469 C 668.75 196.292969 668.980469 194.71875 669.132812 193.136719 C 669.289062 191.550781 669.363281 189.960938 669.359375 188.371094 C 669.355469 186.777344 669.277344 185.191406 669.117188 183.605469 C 668.957031 182.023438 668.722656 180.453125 668.40625 178.890625 C 668.09375 177.328125 667.703125 175.789062 667.238281 174.265625 C 666.773438 172.742188 666.238281 171.246094 665.625 169.777344 C 665.011719 168.308594 664.332031 166.871094 663.578125 165.46875 C 662.824219 164.066406 662.003906 162.707031 661.117188 161.382812 C 660.230469 160.0625 659.28125 158.785156 658.269531 157.558594 C 657.257812 156.328125 656.1875 155.152344 655.058594 154.03125 C 653.929688 152.90625 652.75 151.839844 651.519531 150.835938 C 650.285156 149.828125 649.007812 148.882812 647.679688 148 C 646.355469 147.117188 644.992188 146.304688 643.585938 145.554688 C 642.179688 144.808594 640.742188 144.132812 639.269531 143.527344 C 637.796875 142.917969 636.300781 142.386719 634.777344 141.925781 C 633.25 141.46875 631.707031 141.085938 630.148438 140.777344 C 628.585938 140.46875 627.011719 140.238281 625.425781 140.085938 C 623.84375 139.933594 622.253906 139.859375 620.664062 139.863281 C 619.070312 139.867188 617.484375 139.945312 615.902344 140.105469 C 614.316406 140.265625 612.746094 140.5 611.183594 140.816406 C 609.625 141.128906 608.082031 141.519531 606.5625 141.984375 C 605.039062 142.449219 603.542969 142.984375 602.074219 143.597656 C 600.605469 144.210938 599.171875 144.890625 597.769531 145.644531 C 596.367188 146.398438 595.003906 147.21875 593.683594 148.105469 C 592.363281 148.992188 591.085938 149.941406 589.859375 150.953125 C 588.628906 151.964844 587.453125 153.03125 586.332031 154.160156 C 585.207031 155.289062 584.144531 156.46875 583.136719 157.699219 C 582.128906 158.929688 581.183594 160.210938 580.300781 161.535156 C 579.421875 162.859375 578.605469 164.222656 577.859375 165.628906 C 577.109375 167.035156 576.433594 168.472656 575.828125 169.941406 C 575.21875 171.414062 574.6875 172.910156 574.226562 174.433594 C 573.769531 175.957031 573.386719 177.5 573.078125 179.0625 C 572.769531 180.625 572.539062 182.195312 572.386719 183.78125 C 572.234375 185.363281 572.15625 186.953125 572.160156 188.542969 M 197.046875 405.40625 C 197.277344 520.261719 290.554688 613.160156 405.390625 612.941406 C 520.222656 612.722656 613.1875 519.453125 612.96875 404.59375 C 612.75 289.738281 519.445312 196.8125 404.59375 197.039062 C 289.746094 197.265625 196.828125 290.5625 197.046875 405.40625 M 269.996094 405.257812 C 269.992188 403.050781 270.042969 400.839844 270.148438 398.632812 C 270.25 396.425781 270.410156 394.226562 270.621094 392.027344 C 270.832031 389.828125 271.097656 387.632812 271.417969 385.449219 C 271.738281 383.261719 272.113281 381.085938 272.539062 378.917969 C 272.964844 376.75 273.445312 374.59375 273.976562 372.449219 C 274.511719 370.304688 275.097656 368.175781 275.734375 366.058594 C 276.371094 363.941406 277.058594 361.84375 277.800781 359.761719 C 278.539062 357.679688 279.328125 355.617188 280.171875 353.574219 C 281.011719 351.53125 281.902344 349.511719 282.84375 347.511719 C 283.785156 345.511719 284.773438 343.539062 285.8125 341.589844 C 286.851562 339.636719 287.933594 337.714844 289.066406 335.816406 C 290.199219 333.917969 291.378906 332.050781 292.601562 330.210938 C 293.824219 328.371094 295.09375 326.5625 296.40625 324.785156 C 297.71875 323.007812 299.074219 321.265625 300.472656 319.554688 C 301.871094 317.84375 303.308594 316.167969 304.789062 314.527344 C 306.269531 312.886719 307.789062 311.285156 309.351562 309.71875 C 310.910156 308.15625 312.503906 306.628906 314.140625 305.140625 C 315.773438 303.65625 317.445312 302.207031 319.148438 300.804688 C 320.855469 299.398438 322.59375 298.035156 324.363281 296.714844 C 326.136719 295.398438 327.941406 294.121094 329.773438 292.890625 C 331.609375 291.660156 333.472656 290.472656 335.367188 289.335938 C 337.257812 288.195312 339.179688 287.101562 341.125 286.054688 C 343.070312 285.011719 345.042969 284.015625 347.039062 283.066406 C 349.03125 282.117188 351.050781 281.21875 353.089844 280.367188 C 355.128906 279.519531 357.1875 278.71875 359.265625 277.972656 C 361.347656 277.222656 363.441406 276.527344 365.554688 275.878906 C 367.667969 275.234375 369.796875 274.640625 371.9375 274.101562 C 374.078125 273.558594 376.234375 273.070312 378.398438 272.636719 C 380.566406 272.199219 382.742188 271.820312 384.925781 271.488281 C 387.109375 271.160156 389.304688 270.886719 391.5 270.667969 C 393.699219 270.445312 395.902344 270.277344 398.109375 270.164062 C 400.316406 270.050781 402.523438 269.992188 404.734375 269.988281 C 406.941406 269.984375 409.148438 270.035156 411.355469 270.140625 C 413.5625 270.242188 415.765625 270.402344 417.964844 270.613281 C 420.164062 270.824219 422.359375 271.09375 424.542969 271.410156 C 426.730469 271.730469 428.90625 272.105469 431.074219 272.53125 C 433.242188 272.957031 435.398438 273.4375 437.542969 273.96875 C 439.6875 274.503906 441.816406 275.089844 443.933594 275.726562 C 446.046875 276.363281 448.148438 277.050781 450.230469 277.792969 C 452.3125 278.53125 454.371094 279.324219 456.414062 280.164062 C 458.457031 281.003906 460.480469 281.894531 462.480469 282.835938 C 464.476562 283.777344 466.453125 284.765625 468.402344 285.804688 C 470.355469 286.84375 472.277344 287.925781 474.175781 289.058594 C 476.074219 290.191406 477.941406 291.371094 479.78125 292.59375 C 481.621094 293.816406 483.429688 295.085938 485.207031 296.398438 C 486.984375 297.710938 488.726562 299.066406 490.4375 300.464844 C 492.148438 301.863281 493.824219 303.300781 495.464844 304.78125 C 497.105469 306.261719 498.707031 307.78125 500.273438 309.34375 C 501.835938 310.902344 503.363281 312.496094 504.851562 314.132812 C 506.335938 315.765625 507.785156 317.4375 509.1875 319.140625 C 510.59375 320.847656 511.957031 322.585938 513.277344 324.355469 C 514.59375 326.128906 515.871094 327.933594 517.101562 329.765625 C 518.332031 331.601562 519.519531 333.464844 520.65625 335.359375 C 521.796875 337.25 522.890625 339.171875 523.933594 341.117188 C 524.980469 343.0625 525.976562 345.035156 526.925781 347.03125 C 527.875 349.023438 528.773438 351.042969 529.625 353.082031 C 530.472656 355.121094 531.273438 357.179688 532.019531 359.257812 C 532.769531 361.339844 533.464844 363.433594 534.113281 365.546875 C 534.757812 367.660156 535.351562 369.789062 535.890625 371.929688 C 536.433594 374.070312 536.921875 376.226562 537.355469 378.390625 C 537.792969 380.558594 538.171875 382.734375 538.5 384.917969 C 538.832031 387.105469 539.105469 389.296875 539.324219 391.492188 C 539.546875 393.691406 539.714844 395.894531 539.828125 398.101562 C 539.9375 400.308594 539.996094 402.515625 540.003906 404.726562 C 540.007812 406.933594 539.957031 409.140625 539.851562 411.347656 C 539.75 413.554688 539.589844 415.757812 539.378906 417.957031 C 539.167969 420.15625 538.898438 422.351562 538.582031 424.535156 C 538.261719 426.722656 537.886719 428.898438 537.460938 431.066406 C 537.035156 433.234375 536.554688 435.390625 536.019531 437.535156 C 535.488281 439.679688 534.902344 441.808594 534.265625 443.925781 C 533.628906 446.039062 532.941406 448.140625 532.199219 450.222656 C 531.460938 452.304688 530.667969 454.367188 529.828125 456.410156 C 528.988281 458.449219 528.09375 460.472656 527.15625 462.472656 C 526.214844 464.46875 525.226562 466.445312 524.1875 468.394531 C 523.148438 470.347656 522.066406 472.269531 520.933594 474.167969 C 519.800781 476.066406 518.621094 477.933594 517.398438 479.773438 C 516.175781 481.613281 514.90625 483.421875 513.59375 485.199219 C 512.28125 486.976562 510.925781 488.71875 509.527344 490.429688 C 508.128906 492.140625 506.691406 493.816406 505.210938 495.457031 C 503.730469 497.097656 502.210938 498.699219 500.648438 500.265625 C 499.089844 501.828125 497.496094 503.355469 495.859375 504.84375 C 494.226562 506.328125 492.554688 507.777344 490.851562 509.179688 C 489.144531 510.585938 487.40625 511.949219 485.636719 513.269531 C 483.863281 514.585938 482.058594 515.863281 480.226562 517.09375 C 478.390625 518.324219 476.527344 519.511719 474.632812 520.648438 C 472.742188 521.789062 470.820312 522.882812 468.875 523.925781 C 466.929688 524.972656 464.957031 525.96875 462.960938 526.917969 C 460.96875 527.867188 458.949219 528.765625 456.910156 529.617188 C 454.871094 530.464844 452.8125 531.265625 450.734375 532.011719 C 448.652344 532.761719 446.558594 533.457031 444.445312 534.105469 C 442.332031 534.75 440.203125 535.34375 438.0625 535.882812 C 435.921875 536.425781 433.765625 536.914062 431.601562 537.347656 C 429.433594 537.785156 427.257812 538.164062 425.074219 538.496094 C 422.886719 538.824219 420.695312 539.097656 418.5 539.320312 C 416.300781 539.539062 414.097656 539.707031 411.890625 539.820312 C 409.683594 539.933594 407.476562 539.992188 405.265625 539.996094 C 403.058594 540 400.847656 539.949219 398.640625 539.847656 C 396.433594 539.742188 394.230469 539.585938 392.03125 539.371094 C 389.832031 539.160156 387.640625 538.894531 385.453125 538.574219 C 383.269531 538.253906 381.089844 537.882812 378.921875 537.457031 C 376.753906 537.027344 374.597656 536.550781 372.453125 536.015625 C 370.308594 535.484375 368.179688 534.898438 366.066406 534.261719 C 363.949219 533.625 361.851562 532.9375 359.769531 532.195312 C 357.6875 531.457031 355.625 530.667969 353.582031 529.824219 C 351.539062 528.984375 349.515625 528.09375 347.519531 527.152344 C 345.519531 526.210938 343.542969 525.222656 341.59375 524.183594 C 339.640625 523.148438 337.71875 522.0625 335.820312 520.929688 C 333.921875 519.796875 332.054688 518.621094 330.214844 517.394531 C 328.375 516.171875 326.566406 514.902344 324.789062 513.589844 C 323.011719 512.277344 321.269531 510.921875 319.558594 509.523438 C 317.847656 508.125 316.171875 506.6875 314.53125 505.207031 C 312.890625 503.726562 311.289062 502.207031 309.722656 500.648438 C 308.15625 499.085938 306.632812 497.492188 305.144531 495.855469 C 303.65625 494.222656 302.210938 492.554688 300.804688 490.847656 C 299.402344 489.140625 298.039062 487.402344 296.71875 485.632812 C 295.398438 483.859375 294.125 482.054688 292.894531 480.222656 C 291.660156 478.386719 290.476562 476.523438 289.335938 474.628906 C 288.195312 472.738281 287.105469 470.816406 286.058594 468.871094 C 285.015625 466.925781 284.015625 464.953125 283.070312 462.957031 C 282.121094 460.960938 281.222656 458.945312 280.371094 456.90625 C 279.523438 454.863281 278.722656 452.804688 277.976562 450.726562 C 277.226562 448.648438 276.53125 446.550781 275.882812 444.4375 C 275.238281 442.324219 274.644531 440.199219 274.105469 438.054688 C 273.5625 435.914062 273.074219 433.757812 272.640625 431.59375 C 272.207031 429.425781 271.824219 427.25 271.496094 425.066406 C 271.167969 422.882812 270.894531 420.691406 270.671875 418.492188 C 270.453125 416.292969 270.285156 414.089844 270.171875 411.882812 C 270.058594 409.675781 270 407.46875 269.996094 405.257812 "/></g></svg>