<svg xmlns="http://www.w3.org/2000/svg" xmlns:xlink="http://www.w3.org/1999/xlink" width="1080" zoomAndPan="magnify" viewBox="0 0 810 809.999993" height="1080" preserveAspectRatio="xMidYMid meet" version="1.2"><g id="9548e4d306"><path style=" stroke:none;fill-rule:nonzero;fill:#999999;fill-opacity:1;" d="M 726.410156 158.394531 C 672.476562 88.078125 595.636719 36.714844 510.042969 13.765625 C 476.125 4.667969 440.949219 0.0625 405.480469 0.0625 C 351.710938 0.0625 299.519531 10.382812 250.351562 30.75 C 168.472656 64.652344 98.976562 125.589844 54.675781 202.320312 C 18.910156 263.757812 0 333.792969 0 404.859375 C 0 475.921875 18.898438 545.941406 54.925781 607.753906 C 55.382812 608.335938 55.824219 608.964844 56.328125 609.800781 L 56.71875 610.378906 C 104.332031 691.59375 179.3125 753.949219 267.863281 785.957031 C 312.140625 801.949219 358.65625 809.949219 405.179688 809.949219 C 451.695312 809.949219 498.210938 801.949219 542.484375 785.957031 C 630.445312 754.164062 705.128906 692.332031 752.929688 611.558594 L 753.300781 610.757812 C 753.96875 609.507812 754.511719 608.710938 755.128906 607.859375 L 755.613281 607.140625 C 791.242188 546.042969 810.046875 476.089844 810.003906 404.863281 L 810.003906 401.144531 C 809.21875 313.855469 779.527344 227.640625 726.410156 158.394531 Z M 578.410156 498.203125 C 581.632812 467.308594 583.300781 435.898438 583.371094 404.828125 C 583.300781 373.753906 581.632812 342.363281 578.40625 311.519531 L 577.40625 301.960938 L 586.839844 300.152344 C 629.929688 291.898438 671.867188 278.199219 711.480469 259.417969 L 721.15625 254.84375 L 725.515625 264.609375 C 745.347656 309.039062 755.402344 356.226562 755.402344 404.863281 C 755.402344 453.507812 745.347656 500.695312 725.515625 545.109375 L 721.15625 554.886719 L 711.496094 550.3125 C 671.855469 531.558594 629.914062 517.851562 586.84375 509.574219 L 577.410156 507.757812 Z M 123.507812 612.492188 L 115.878906 602.136719 L 127.578125 596.777344 C 160.273438 581.824219 194.710938 570.644531 229.929688 563.546875 L 240.441406 561.425781 L 242.308594 571.984375 C 251.105469 621.832031 266.730469 670.207031 288.753906 715.765625 L 300.496094 740.066406 L 275.441406 730.042969 L 275.445312 730.042969 C 214.789062 705.761719 162.25 665.109375 123.507812 612.492188 Z M 275.460938 79.882812 L 300.703125 69.605469 L 288.820312 94.128906 C 266.75 139.671875 251.097656 188.023438 242.296875 237.839844 L 240.425781 248.40625 L 229.90625 246.273438 C 194.652344 239.125 160.226562 227.917969 127.574219 212.96875 L 116.179688 207.753906 L 123.925781 196.558594 L 124.011719 196.429688 C 124.542969 195.582031 125.09375 194.75 125.699219 193.953125 C 127.925781 191.007812 130.335938 188.179688 132.742188 185.367188 C 133.910156 184.007812 135.074219 182.648438 136.203125 181.277344 C 141.742188 174.632812 147.738281 167.570312 154.121094 160.949219 C 157.753906 157.179688 161.570312 153.6875 164.933594 150.613281 L 167.09375 148.632812 C 173.140625 142.996094 179.628906 137.042969 186.738281 131.5625 C 190.773438 128.253906 195.324219 124.976562 199.328125 122.089844 L 201.054688 120.851562 C 207.703125 116.042969 214.75 111.347656 222 106.875 C 227.179688 103.6875 232.429688 100.625 237.671875 97.738281 C 244.515625 94.15625 252.496094 90.027344 260.582031 86.398438 C 265.449219 84.183594 270.410156 81.9375 275.460938 79.882812 Z M 284.992188 321.28125 L 285.960938 310.507812 L 296.703125 311.84375 C 332.539062 316.289062 368.984375 318.648438 405.066406 318.859375 C 441.035156 318.652344 477.429688 316.289062 513.21875 311.84375 L 523.929688 310.507812 L 524.929688 321.253906 C 527.464844 348.539062 528.742188 376.675781 528.742188 404.871094 C 528.742188 432.578125 527.496094 459.933594 524.929688 488.5 L 523.96875 499.195312 L 513.292969 497.949219 C 477.347656 493.773438 441.160156 491.683594 404.960938 491.683594 C 368.761719 491.683594 332.5625 493.773438 296.613281 497.949219 L 285.945312 499.195312 L 284.980469 488.5 C 282.414062 459.925781 281.167969 432.570312 281.167969 404.871094 C 281.175781 377.113281 282.425781 349.769531 284.992188 321.28125 Z M 505.046875 257.832031 C 438.90625 265.371094 371.011719 265.371094 304.890625 257.832031 L 293.652344 256.546875 L 295.800781 245.4375 C 317.960938 131.195312 361.832031 54.4375 404.972656 54.4375 C 448.113281 54.4375 491.976562 131.195312 514.128906 245.4375 L 516.285156 256.546875 Z M 304.882812 551.917969 C 371.292969 544.347656 438.636719 544.34375 505.027344 551.917969 L 516.265625 553.195312 L 514.105469 564.300781 C 491.960938 678.546875 448.097656 755.300781 404.953125 755.300781 C 361.8125 755.300781 317.945312 678.546875 295.789062 564.300781 L 293.636719 553.195312 Z M 509.421875 740.070312 L 521.1875 715.769531 C 543.21875 670.207031 558.84375 621.832031 567.632812 571.988281 L 569.492188 561.429688 L 579.996094 563.550781 C 615.1875 570.640625 649.625 581.828125 682.34375 596.78125 L 694.046875 602.121094 L 686.425781 612.496094 C 647.695312 665.125 595.15625 705.773438 534.484375 730.054688 Z M 682.261719 212.972656 C 649.554688 227.945312 615.121094 239.144531 579.914062 246.238281 L 569.40625 248.363281 L 567.546875 237.789062 C 558.785156 188.023438 543.199219 139.703125 521.214844 94.160156 L 509.519531 69.929688 L 534.507812 79.894531 L 534.515625 79.898438 C 539.515625 81.882812 544.378906 84.101562 549.277344 86.339844 C 557.859375 90.207031 565.4375 93.960938 572.445312 97.824219 C 577.582031 100.640625 582.632812 103.628906 587.652344 106.679688 C 595.050781 111.214844 602.339844 116.097656 609.34375 121.203125 C 614.316406 124.785156 618.800781 128.039062 623.257812 131.636719 C 629.308594 136.457031 635.695312 142.042969 643.355469 149.207031 L 646.941406 152.558594 C 649.886719 155.289062 652.824219 158.019531 655.691406 161.085938 C 662.113281 167.652344 668.15625 174.835938 674.316406 182.257812 L 677.375 185.863281 C 679.589844 188.460938 681.820312 191.082031 683.894531 193.65625 C 684.664062 194.652344 685.234375 195.527344 685.8125 196.445312 L 693.980469 207.613281 Z M 231.515625 311.546875 C 224.917969 373.476562 224.917969 436.265625 231.515625 498.179688 L 232.535156 507.757812 L 223.082031 509.574219 C 179.964844 517.835938 138.03125 531.539062 98.449219 550.296875 L 88.777344 554.890625 L 84.410156 545.121094 C 64.582031 500.699219 54.523438 453.511719 54.523438 404.871094 C 54.523438 356.222656 64.582031 309.035156 84.410156 264.617188 L 88.769531 254.859375 L 98.4375 259.429688 C 138.097656 278.1875 180.035156 291.890625 223.085938 300.164062 L 232.539062 301.976562 Z M 231.515625 311.546875 "/></g></svg>